<svg id="icon-logo" width="151" height="59" viewBox="0 0 151 59" fill="none" xmlns="http://www.w3.org/2000/svg">
<g clip-path="url(#clip0_3_484)">
<path d="M64.2499 26.0446C62.4841 27.6606 60.226 28.4686 57.4755 28.4686C54.0723 28.4686 51.3968 27.377 49.449 25.1938C47.5012 22.9999 46.5273 19.9926 46.5273 16.172C46.5273 12.041 47.635 8.85712 49.8503 6.62039C51.7767 4.67262 54.2275 3.69873 57.2026 3.69873C61.1838 3.69873 64.0948 5.00438 65.9355 7.61568C66.9522 9.08186 67.498 10.5534 67.5729 12.0303H62.6286C62.3075 10.8959 61.8955 10.0397 61.3925 9.46179C60.4935 8.43439 59.1611 7.92069 57.3953 7.92069C55.5973 7.92069 54.1793 8.64843 53.1412 10.1039C52.1031 11.5487 51.5841 13.5981 51.5841 16.2522C51.5841 18.9064 52.1299 20.8969 53.2215 22.224C54.3238 23.5403 55.7204 24.1985 57.4113 24.1985C59.1451 24.1985 60.4668 23.6313 61.3764 22.4969C61.8794 21.8869 62.2968 20.9718 62.6286 19.7518H67.5248C67.0967 22.331 66.0051 24.4286 64.2499 26.0446Z" fill="#10203A"/>
<path d="M79.7412 14.5346C77.9004 14.5346 76.6643 15.1339 76.0329 16.3325C75.6797 17.0067 75.5032 18.0448 75.5032 19.4468V27.8105H70.8959V10.3126H75.2624V13.3627C75.9687 12.1962 76.5841 11.3989 77.1085 10.9708C77.9646 10.2537 79.0776 9.89522 80.4475 9.89522C80.5331 9.89522 80.6027 9.90057 80.6562 9.91127C80.7204 9.91127 80.8542 9.91662 81.0575 9.92733V14.6148C80.7686 14.5827 80.5117 14.5613 80.287 14.5506C80.0622 14.5399 79.8803 14.5346 79.7412 14.5346Z" fill="#10203A"/>
<path d="M90.866 23.2193L94.4779 10.3126H99.342L93.3381 27.5215C92.1823 30.8391 91.2673 32.8939 90.5931 33.6859C89.9188 34.4885 88.5704 34.8899 86.5477 34.8899C86.141 34.8899 85.8146 34.8845 85.5684 34.8738C85.3223 34.8738 84.9531 34.8578 84.4608 34.8257V31.1656L85.0387 31.1977C85.4882 31.2191 85.9163 31.203 86.3229 31.1495C86.7296 31.096 87.0721 30.9729 87.3503 30.7803C87.6179 30.5983 87.864 30.2184 88.0888 29.6405C88.3242 29.0626 88.4205 28.7094 88.3777 28.581L81.9565 10.3126H87.0453L90.866 23.2193Z" fill="#10203A"/>
<path d="M116.711 12.1908C118.124 13.6998 118.83 15.9151 118.83 18.8368C118.83 21.919 118.135 24.2681 116.744 25.8841C115.363 27.5001 113.581 28.3081 111.398 28.3081C110.007 28.3081 108.851 27.9603 107.93 27.2647C107.427 26.8794 106.935 26.3175 106.454 25.5791V34.6972H101.927V10.3126H106.309V12.8971C106.801 12.1373 107.326 11.538 107.882 11.0992C108.899 10.318 110.108 9.92733 111.51 9.92733C113.554 9.92733 115.288 10.6818 116.711 12.1908ZM114.111 19.0615C114.111 17.7131 113.8 16.5198 113.18 15.4817C112.57 14.4436 111.574 13.9245 110.194 13.9245C108.535 13.9245 107.395 14.7111 106.775 16.2843C106.454 17.1191 106.293 18.1786 106.293 19.4629C106.293 21.4962 106.833 22.925 107.914 23.749C108.556 24.2306 109.316 24.4714 110.194 24.4714C111.467 24.4714 112.436 23.9791 113.099 22.9945C113.774 22.0099 114.111 20.6989 114.111 19.0615Z" fill="#10203A"/>
<path d="M130.164 24.5517V27.971L127.997 28.0513C125.835 28.1262 124.358 27.7516 123.566 26.9275C123.052 26.4031 122.796 25.5951 122.796 24.5035V13.7319H120.355V10.4731H122.796V5.59299H127.323V10.4731H130.164V13.7319H127.323V22.9785C127.323 23.6955 127.413 24.145 127.595 24.3269C127.777 24.4982 128.334 24.5838 129.265 24.5838C129.404 24.5838 129.549 24.5838 129.698 24.5838C129.859 24.5731 130.014 24.5624 130.164 24.5517Z" fill="#10203A"/>
<path d="M147.694 12.5279C149.171 14.3794 149.909 16.568 149.909 19.0936C149.909 21.6621 149.171 23.8614 147.694 25.6915C146.217 27.5108 143.975 28.4205 140.968 28.4205C137.96 28.4205 135.718 27.5108 134.241 25.6915C132.765 23.8614 132.026 21.6621 132.026 19.0936C132.026 16.568 132.765 14.3794 134.241 12.5279C135.718 10.6765 137.96 9.75074 140.968 9.75074C143.975 9.75074 146.217 10.6765 147.694 12.5279ZM140.952 13.6195C139.614 13.6195 138.581 14.0958 137.853 15.0483C137.136 15.99 136.778 17.3385 136.778 19.0936C136.778 20.8488 137.136 22.2026 137.853 23.1551C138.581 24.1075 139.614 24.5838 140.952 24.5838C142.289 24.5838 143.317 24.1075 144.034 23.1551C144.751 22.2026 145.109 20.8488 145.109 19.0936C145.109 17.3385 144.751 15.99 144.034 15.0483C143.317 14.0958 142.289 13.6195 140.952 13.6195Z" fill="#10203A"/>
<path d="M101.185 39.0413H103.543L110.987 50.9807V39.0413H112.883V53.78H110.646L103.091 41.8505V53.78H101.185V39.0413Z" fill="#786C86"/>
<path d="M120.268 42.7937C121.03 42.7937 121.77 42.9743 122.485 43.3355C123.201 43.69 123.746 44.1515 124.121 44.72C124.482 45.2618 124.723 45.8939 124.843 46.6163C124.95 47.1113 125.004 47.9006 125.004 48.9841H117.128C117.161 50.0744 117.418 50.9506 117.9 51.6128C118.382 52.2683 119.127 52.5961 120.137 52.5961C121.081 52.5961 121.833 52.2851 122.395 51.663C122.716 51.3018 122.943 50.8838 123.077 50.4088H124.853C124.806 50.8035 124.649 51.2449 124.382 51.7332C124.121 52.2148 123.826 52.6095 123.499 52.9171C122.95 53.4522 122.271 53.8134 121.462 54.0007C121.027 54.1077 120.535 54.1613 119.987 54.1613C118.649 54.1613 117.515 53.6763 116.586 52.7064C115.656 51.7299 115.191 50.3654 115.191 48.6129C115.191 46.8872 115.659 45.4859 116.596 44.409C117.532 43.3321 118.756 42.7937 120.268 42.7937ZM123.147 47.5494C123.074 46.7668 122.903 46.1414 122.636 45.6732C122.141 44.8036 121.315 44.3689 120.158 44.3689C119.328 44.3689 118.633 44.6699 118.071 45.2719C117.509 45.8672 117.211 46.6263 117.178 47.5494H123.147Z" fill="#786C86"/>
<path d="M128.064 43.0345L130.131 51.5025L132.227 43.0345H134.254L136.361 51.4523L138.558 43.0345H140.364L137.244 53.78H135.368L133.181 45.4625L131.064 53.78H129.187L126.087 43.0345H128.064Z" fill="#786C86"/>
<path d="M143.154 50.4088C143.207 51.0108 143.358 51.4724 143.605 51.7934C144.06 52.3754 144.849 52.6663 145.973 52.6663C146.642 52.6663 147.23 52.5225 147.739 52.2349C148.247 51.9406 148.501 51.4891 148.501 50.8804C148.501 50.4189 148.297 50.0677 147.889 49.8269C147.628 49.6798 147.113 49.5092 146.344 49.3152L144.909 48.954C143.993 48.7266 143.317 48.4724 142.883 48.1915C142.107 47.7032 141.719 47.0277 141.719 46.1648C141.719 45.1481 142.083 44.3254 142.812 43.6967C143.548 43.0679 144.535 42.7535 145.772 42.7535C147.391 42.7535 148.558 43.2284 149.274 44.1782C149.722 44.7802 149.939 45.429 149.926 46.1247H148.22C148.187 45.7167 148.043 45.3454 147.789 45.011C147.374 44.5361 146.655 44.2986 145.632 44.2986C144.95 44.2986 144.431 44.4291 144.077 44.6899C143.729 44.9508 143.555 45.2953 143.555 45.7234C143.555 46.1916 143.786 46.5661 144.247 46.8471C144.515 47.0143 144.909 47.1614 145.431 47.2885L146.625 47.5795C147.923 47.8939 148.792 48.1982 149.234 48.4925C149.936 48.954 150.287 49.6798 150.287 50.6697C150.287 51.6262 149.923 52.4523 149.194 53.1479C148.471 53.8435 147.368 54.1914 145.883 54.1914C144.284 54.1914 143.15 53.8302 142.481 53.1078C141.819 52.3787 141.465 51.4791 141.418 50.4088H143.154Z" fill="#786C86"/>
<path fill-rule="evenodd" clip-rule="evenodd" d="M6.93075 49.0855C4.85232 51.1639 4.85232 54.5353 6.93075 56.6137C9.00918 58.6922 12.3805 58.6922 14.459 56.6137C16.5374 54.5353 16.5374 51.1639 14.459 49.0855C12.7559 47.3824 11.8036 45.2136 11.602 42.9823C11.5464 42.3845 11.5464 41.7797 11.602 41.175C11.6715 40.3825 11.8383 39.597 12.1025 38.8393C12.5752 37.463 13.3607 36.1701 14.459 35.0718C16.5374 32.9933 16.5374 29.622 14.459 27.5435C12.7559 25.8405 11.8036 23.6717 11.602 21.4403C11.3448 18.6111 12.2971 15.6986 14.459 13.5367C18.3239 9.67182 24.6009 9.67182 28.4658 13.5367C30.6276 15.6986 31.5799 18.6181 31.3227 21.4403C31.1212 23.6647 30.1688 25.8405 28.4658 27.5435C26.3873 29.622 26.3873 32.9933 28.4658 35.0718C29.5641 36.1701 30.3496 37.463 30.8222 38.8393C31.0864 39.597 31.2532 40.3825 31.3227 41.175C31.3784 41.7728 31.3784 42.3775 31.3227 42.9823C31.1212 45.2067 30.1688 47.3824 28.4658 49.0855C26.3873 51.1639 26.3873 54.5353 28.4658 56.6137C30.5442 58.6922 33.9156 58.6922 35.994 56.6137C38.0724 54.5353 38.0724 51.1639 35.994 49.0855C34.2909 47.3824 33.3386 45.2136 33.137 42.9823C33.0814 42.3845 33.0814 41.7797 33.137 41.175C33.3386 38.9714 34.2701 36.8235 36.0009 35.0718C37.5858 33.473 39.8241 30.6368 41.0476 26.7858C43.2998 19.7025 41.6176 11.6321 35.994 6.01545C27.9653 -2.00631 14.9525 -2.00631 6.93075 6.0224C1.30717 11.639 -0.375035 19.7094 1.87718 26.7928C3.07975 30.5673 5.16512 33.2922 6.97941 35.1343C8.64771 36.8304 9.58613 38.9784 9.78772 41.1819C9.84333 41.7797 9.84333 42.3845 9.78772 42.9892C9.58613 45.2136 8.63381 47.3824 6.93075 49.0855ZM25.2195 16.7899C23.1411 14.7115 19.7697 14.7115 17.6913 16.7899C15.6129 18.8683 15.6129 22.2397 17.6913 24.3181C19.3944 26.0212 20.3467 28.19 20.5483 30.4214C20.6039 31.0192 20.6039 31.6239 20.5483 32.2287C20.3467 34.4531 19.3944 36.6288 17.6913 38.3319C17.0657 38.9575 16.6347 39.6943 16.3845 40.4798C15.8006 42.315 16.2385 44.4073 17.6913 45.8601C19.7697 47.9385 23.1411 47.9385 25.2195 45.8601C26.6723 44.4073 27.1103 42.315 26.5264 40.4798C26.2761 39.6943 25.8382 38.9575 25.2195 38.3319C23.5165 36.6288 22.5641 34.46 22.3626 32.2287C22.3069 31.6309 22.3069 31.0261 22.3626 30.4214C22.5641 28.1969 23.5165 26.0212 25.2195 24.3181C27.298 22.2328 27.298 18.8683 25.2195 16.7899Z" fill="url(#paint0_linear_3_484)"/>
</g>
<defs>
<linearGradient id="paint0_linear_3_484" x1="21.4624" y1="0" x2="21.4624" y2="58.1726" gradientUnits="userSpaceOnUse">
<stop stop-color="#FF3333"/>
<stop offset="1" stop-color="#7100A8"/>
</linearGradient>
<clipPath id="clip0_3_484">
<rect width="150" height="58.3562" fill="white" transform="translate(0.5)"/>
</clipPath>
</defs>
</svg>
