<svg id="icon-menu" viewBox="0 0 16 16" fill="none" xmlns="http://www.w3.org/2000/svg">
<path fill-rule="evenodd" clip-rule="evenodd" d="M6.85714 13.3715C6.85714 12.7403 7.36882 12.2286 8 12.2286H14.8571C15.4883 12.2286 16 12.7403 16 13.3715C16 14.0027 15.4883 14.5143 14.8571 14.5143H8C7.36882 14.5143 6.85714 14.0027 6.85714 13.3715ZM0 1.94291C0 1.31172 0.511669 0.800049 1.14286 0.800049H14.8571C15.4883 0.800049 16 1.31172 16 1.94291C16 2.57408 15.4883 3.08576 14.8571 3.08576H1.14286C0.511669 3.08576 0 2.57408 0 1.94291ZM0 7.65719C0 7.02601 0.511669 6.51433 1.14286 6.51433H14.8571C15.4883 6.51433 16 7.02601 16 7.65719C16 8.28839 15.4883 8.80005 14.8571 8.80005H1.14286C0.511669 8.80005 0 8.28839 0 7.65719Z" fill="currentColor"/>
</svg>
