<svg id="icon-user-plus" viewBox="0 0 17 16" fill="none" xmlns="http://www.w3.org/2000/svg">
<g clip-path="url(#clip0_2001_1040)">
<path fill-rule="evenodd" clip-rule="evenodd" d="M12.7791 10.2326C12.7791 9.92446 13.0291 9.67442 13.3372 9.67442C13.6453 9.67442 13.8953 9.92446 13.8953 10.2326V15.4419C13.8953 15.75 13.6453 16 13.3372 16C13.0291 16 12.7791 15.75 12.7791 15.4419V10.2326Z" fill="white"/>
<path fill-rule="evenodd" clip-rule="evenodd" d="M10.7326 13.3953C10.4245 13.3953 10.1744 13.1453 10.1744 12.8372C10.1744 12.5291 10.4245 12.2791 10.7326 12.2791H15.9419C16.25 12.2791 16.5 12.5291 16.5 12.8372C16.5 13.1453 16.25 13.3953 15.9419 13.3953H10.7326Z" fill="white"/>
<path fill-rule="evenodd" clip-rule="evenodd" d="M7.38372 0C9.64307 0 11.4767 1.83367 11.4767 4.09302C11.4767 6.35237 9.64307 8.18605 7.38372 8.18605C5.12437 8.18605 3.2907 6.35237 3.2907 4.09302C3.2907 1.83367 5.12437 0 7.38372 0ZM7.38372 1.11628C5.74056 1.11628 4.40698 2.44986 4.40698 4.09302C4.40698 5.73619 5.74056 7.06977 7.38372 7.06977C9.02688 7.06977 10.3605 5.73619 10.3605 4.09302C10.3605 2.44986 9.02688 1.11628 7.38372 1.11628Z" fill="white"/>
<path fill-rule="evenodd" clip-rule="evenodd" d="M1.05814 16C0.878791 16 0.718791 15.9152 0.616093 15.7827C0.560279 15.7157 0.51786 15.6279 0.504465 15.5126C0.501488 15.4902 0.5 15.4664 0.5 15.4419C0.5 15.4389 0.5 15.4359 0.5 15.4329V14.6977C0.5 11.5126 3.08233 8.93023 6.26744 8.93023H10.3605C10.6686 8.93023 10.9186 9.18028 10.9186 9.48837C10.9186 9.79646 10.6686 10.0465 10.3605 10.0465H6.26744C3.69851 10.0465 1.61628 12.1287 1.61628 14.6977V15.4329C1.61628 15.9598 1.05814 16 1.05814 16Z" fill="white"/>
</g>
<defs>
<clipPath id="clip0_2001_1040">
<rect width="16" height="16" fill="white" transform="translate(0.5)"/>
</clipPath>
</defs>
</svg>
