<svg viewBox="0 0 24 24" fill="none" xmlns="http://www.w3.org/2000/svg">
<path d="M17.938 5.56027C18.2065 5.82875 18.2291 6.25013 18.0054 6.54412L17.9383 6.62096L12.8125 11.7484L17.9412 16.8772C18.2341 17.17 18.2341 17.6449 17.9412 17.9378C17.6727 18.2063 17.2513 18.2287 16.9574 18.005L16.8806 17.9378L11.7518 12.8091L6.62737 17.9364C6.33456 18.2294 5.8596 18.2296 5.56671 17.9367C5.29823 17.6682 5.27567 17.2468 5.4994 16.9528L5.5665 16.876L10.6912 11.7484L5.56537 6.62262C5.27247 6.32973 5.27249 5.85485 5.56537 5.56196C5.83386 5.29348 6.25526 5.2711 6.54926 5.49481L6.62603 5.56196L11.7518 10.6878L16.8774 5.56051C17.1702 5.26755 17.6452 5.26738 17.938 5.56027Z" fill="currentColor"/>
</svg>
